<mxfile host="app.diagrams.net" agent="Mozilla/5.0 (Windows NT 10.0; Win64; x64) AppleWebKit/537.36 (KHTML, like Gecko) Chrome/135.0.0.0 Safari/537.36" version="26.2.14">
  <diagram name="Page-1" id="0JowXWndS_4GRPt7PO4x">
    <mxGraphModel dx="834" dy="463" grid="1" gridSize="10" guides="1" tooltips="1" connect="1" arrows="1" fold="1" page="1" pageScale="1" pageWidth="850" pageHeight="1100" math="0" shadow="0">
      <root>
        <mxCell id="0" />
        <mxCell id="1" parent="0" />
        <mxCell id="6uaq3goSxlXocx6dOzzZ-1" value="User" style="rounded=0;whiteSpace=wrap;html=1;" parent="1" vertex="1">
          <mxGeometry x="50" y="370" width="120" height="60" as="geometry" />
        </mxCell>
        <mxCell id="Fpf1traXN4QsZ3xAGvh6-30" style="edgeStyle=none;curved=1;rounded=0;orthogonalLoop=1;jettySize=auto;html=1;exitX=0.5;exitY=0;exitDx=0;exitDy=0;entryX=0.5;entryY=1;entryDx=0;entryDy=0;fontSize=12;startSize=8;endSize=8;" edge="1" parent="1" source="39K2vKFIC0R0XHpehMD2-1" target="Fpf1traXN4QsZ3xAGvh6-24">
          <mxGeometry relative="1" as="geometry" />
        </mxCell>
        <mxCell id="Fpf1traXN4QsZ3xAGvh6-31" style="edgeStyle=none;curved=1;rounded=0;orthogonalLoop=1;jettySize=auto;html=1;exitX=0.5;exitY=0;exitDx=0;exitDy=0;entryX=0.5;entryY=1;entryDx=0;entryDy=0;fontSize=12;startSize=8;endSize=8;" edge="1" parent="1" source="39K2vKFIC0R0XHpehMD2-1" target="Fpf1traXN4QsZ3xAGvh6-25">
          <mxGeometry relative="1" as="geometry" />
        </mxCell>
        <mxCell id="Fpf1traXN4QsZ3xAGvh6-32" style="edgeStyle=none;curved=1;rounded=0;orthogonalLoop=1;jettySize=auto;html=1;exitX=0.5;exitY=0;exitDx=0;exitDy=0;entryX=0.5;entryY=1;entryDx=0;entryDy=0;fontSize=12;startSize=8;endSize=8;" edge="1" parent="1" source="39K2vKFIC0R0XHpehMD2-1" target="Fpf1traXN4QsZ3xAGvh6-27">
          <mxGeometry relative="1" as="geometry" />
        </mxCell>
        <mxCell id="39K2vKFIC0R0XHpehMD2-1" value="Not Notion" style="ellipse;whiteSpace=wrap;html=1;aspect=fixed;" parent="1" vertex="1">
          <mxGeometry x="360" y="360" width="80" height="80" as="geometry" />
        </mxCell>
        <mxCell id="39K2vKFIC0R0XHpehMD2-13" value="" style="endArrow=none;dashed=1;html=1;dashPattern=1 3;strokeWidth=2;rounded=0;" parent="1" edge="1">
          <mxGeometry width="50" height="50" relative="1" as="geometry">
            <mxPoint x="200" y="450" as="sourcePoint" />
            <mxPoint x="200" y="320" as="targetPoint" />
          </mxGeometry>
        </mxCell>
        <mxCell id="39K2vKFIC0R0XHpehMD2-14" value="&lt;font style=&quot;font-size: 8px;&quot;&gt;Security Boundary&lt;/font&gt;" style="text;html=1;align=center;verticalAlign=middle;whiteSpace=wrap;rounded=0;" parent="1" vertex="1">
          <mxGeometry x="170" y="460" width="60" height="30" as="geometry" />
        </mxCell>
        <mxCell id="Fpf1traXN4QsZ3xAGvh6-3" value="Login" style="ellipse;whiteSpace=wrap;html=1;aspect=fixed;" vertex="1" parent="1">
          <mxGeometry x="240" y="370" width="60" height="60" as="geometry" />
        </mxCell>
        <mxCell id="Fpf1traXN4QsZ3xAGvh6-4" value="" style="endArrow=classic;html=1;rounded=0;fontSize=12;startSize=8;endSize=8;curved=1;exitX=1;exitY=0.5;exitDx=0;exitDy=0;" edge="1" parent="1" source="6uaq3goSxlXocx6dOzzZ-1">
          <mxGeometry width="50" height="50" relative="1" as="geometry">
            <mxPoint x="370" y="460" as="sourcePoint" />
            <mxPoint x="240" y="400" as="targetPoint" />
          </mxGeometry>
        </mxCell>
        <mxCell id="Fpf1traXN4QsZ3xAGvh6-5" value="&lt;font style=&quot;font-size: 8px;&quot;&gt;Authenticate&lt;/font&gt;&lt;div&gt;&lt;font style=&quot;font-size: 8px;&quot;&gt;Login&lt;/font&gt;&lt;/div&gt;" style="ellipse;whiteSpace=wrap;html=1;aspect=fixed;" vertex="1" parent="1">
          <mxGeometry x="245" y="460" width="50" height="50" as="geometry" />
        </mxCell>
        <mxCell id="Fpf1traXN4QsZ3xAGvh6-6" value="" style="endArrow=classic;html=1;rounded=0;fontSize=12;startSize=8;endSize=8;curved=1;exitX=0;exitY=1;exitDx=0;exitDy=0;entryX=0;entryY=0;entryDx=0;entryDy=0;" edge="1" parent="1" source="Fpf1traXN4QsZ3xAGvh6-3" target="Fpf1traXN4QsZ3xAGvh6-5">
          <mxGeometry width="50" height="50" relative="1" as="geometry">
            <mxPoint x="370" y="460" as="sourcePoint" />
            <mxPoint x="420" y="410" as="targetPoint" />
          </mxGeometry>
        </mxCell>
        <mxCell id="Fpf1traXN4QsZ3xAGvh6-9" value="&lt;font style=&quot;font-size: 8px;&quot;&gt;Authenticate&lt;/font&gt;" style="text;html=1;align=center;verticalAlign=middle;whiteSpace=wrap;rounded=0;" vertex="1" parent="1">
          <mxGeometry x="205" y="420" width="40" height="30" as="geometry" />
        </mxCell>
        <mxCell id="Fpf1traXN4QsZ3xAGvh6-10" value="" style="endArrow=classic;html=1;rounded=0;fontSize=12;startSize=8;endSize=8;curved=1;entryX=1;entryY=1;entryDx=0;entryDy=0;exitX=1;exitY=0;exitDx=0;exitDy=0;" edge="1" parent="1" source="Fpf1traXN4QsZ3xAGvh6-5" target="Fpf1traXN4QsZ3xAGvh6-3">
          <mxGeometry width="50" height="50" relative="1" as="geometry">
            <mxPoint x="270" y="490" as="sourcePoint" />
            <mxPoint x="320" y="440" as="targetPoint" />
          </mxGeometry>
        </mxCell>
        <mxCell id="Fpf1traXN4QsZ3xAGvh6-11" value="&lt;font style=&quot;font-size: 8px;&quot;&gt;Allow pass or throw error&lt;/font&gt;" style="text;html=1;align=center;verticalAlign=middle;whiteSpace=wrap;rounded=0;" vertex="1" parent="1">
          <mxGeometry x="290" y="440" width="60" height="30" as="geometry" />
        </mxCell>
        <mxCell id="Fpf1traXN4QsZ3xAGvh6-12" value="" style="endArrow=classic;html=1;rounded=0;fontSize=12;startSize=8;endSize=8;curved=1;exitX=1;exitY=0.5;exitDx=0;exitDy=0;entryX=0;entryY=0.5;entryDx=0;entryDy=0;" edge="1" parent="1" source="Fpf1traXN4QsZ3xAGvh6-3" target="39K2vKFIC0R0XHpehMD2-1">
          <mxGeometry width="50" height="50" relative="1" as="geometry">
            <mxPoint x="340" y="420" as="sourcePoint" />
            <mxPoint x="390" y="370" as="targetPoint" />
          </mxGeometry>
        </mxCell>
        <mxCell id="Fpf1traXN4QsZ3xAGvh6-13" value="&lt;font style=&quot;font-size: 8px;&quot;&gt;Access Home Page&lt;/font&gt;" style="text;html=1;align=center;verticalAlign=middle;whiteSpace=wrap;rounded=0;" vertex="1" parent="1">
          <mxGeometry x="290" y="360" width="60" height="30" as="geometry" />
        </mxCell>
        <mxCell id="Fpf1traXN4QsZ3xAGvh6-18" value="Data Storage" style="shape=partialRectangle;whiteSpace=wrap;html=1;left=0;right=0;fillColor=none;" vertex="1" parent="1">
          <mxGeometry x="370" y="470" width="70" height="40" as="geometry" />
        </mxCell>
        <mxCell id="Fpf1traXN4QsZ3xAGvh6-19" value="" style="endArrow=classic;html=1;rounded=0;fontSize=12;startSize=8;endSize=8;curved=1;exitX=0;exitY=1;exitDx=0;exitDy=0;entryX=0.25;entryY=0;entryDx=0;entryDy=0;" edge="1" parent="1" source="39K2vKFIC0R0XHpehMD2-1" target="Fpf1traXN4QsZ3xAGvh6-18">
          <mxGeometry width="50" height="50" relative="1" as="geometry">
            <mxPoint x="370" y="460" as="sourcePoint" />
            <mxPoint x="420" y="410" as="targetPoint" />
          </mxGeometry>
        </mxCell>
        <mxCell id="Fpf1traXN4QsZ3xAGvh6-20" value="&lt;font style=&quot;font-size: 8px;&quot;&gt;Save Data&lt;/font&gt;" style="text;html=1;align=center;verticalAlign=middle;whiteSpace=wrap;rounded=0;" vertex="1" parent="1">
          <mxGeometry x="375" y="430" width="60" height="30" as="geometry" />
        </mxCell>
        <mxCell id="Fpf1traXN4QsZ3xAGvh6-21" value="" style="endArrow=classic;html=1;rounded=0;fontSize=12;startSize=8;endSize=8;curved=1;exitX=1;exitY=0;exitDx=0;exitDy=0;entryX=0.922;entryY=0.804;entryDx=0;entryDy=0;entryPerimeter=0;" edge="1" parent="1" source="Fpf1traXN4QsZ3xAGvh6-18" target="39K2vKFIC0R0XHpehMD2-1">
          <mxGeometry width="50" height="50" relative="1" as="geometry">
            <mxPoint x="370" y="460" as="sourcePoint" />
            <mxPoint x="420" y="410" as="targetPoint" />
          </mxGeometry>
        </mxCell>
        <mxCell id="Fpf1traXN4QsZ3xAGvh6-22" value="&lt;font style=&quot;font-size: 8px;&quot;&gt;Load Data&lt;/font&gt;" style="text;html=1;align=center;verticalAlign=middle;whiteSpace=wrap;rounded=0;" vertex="1" parent="1">
          <mxGeometry x="435" y="430" width="60" height="30" as="geometry" />
        </mxCell>
        <mxCell id="Fpf1traXN4QsZ3xAGvh6-35" style="edgeStyle=none;curved=1;rounded=0;orthogonalLoop=1;jettySize=auto;html=1;exitX=0.5;exitY=0;exitDx=0;exitDy=0;fontSize=12;startSize=8;endSize=8;" edge="1" parent="1" source="Fpf1traXN4QsZ3xAGvh6-24">
          <mxGeometry relative="1" as="geometry">
            <mxPoint x="404.974358974359" y="229.9999999999999" as="targetPoint" />
          </mxGeometry>
        </mxCell>
        <mxCell id="Fpf1traXN4QsZ3xAGvh6-24" value="Create&amp;nbsp;&lt;div&gt;Task&lt;span style=&quot;color: rgba(0, 0, 0, 0); font-family: monospace; font-size: 0px; text-align: start; text-wrap-mode: nowrap; background-color: transparent;&quot;&gt;%3CmxGraphModel%3E%3Croot%3E%3CmxCell%20id%3D%220%22%2F%3E%3CmxCell%20id%3D%221%22%20parent%3D%220%22%2F%3E%3CmxCell%20id%3D%222%22%20value%3D%22Create%2FDelete%2FEdit%20Task%22%20style%3D%22ellipse%3BwhiteSpace%3Dwrap%3Bhtml%3D1%3Baspect%3Dfixed%3B%22%20vertex%3D%221%22%20parent%3D%221%22%3E%3CmxGeometry%20x%3D%22370%22%20y%3D%22230%22%20width%3D%2250%22%20height%3D%2250%22%20as%3D%22geometry%22%2F%3E%3C%2FmxCell%3E%3C%2Froot%3E%3C%2FmxGraphModel%3E&lt;/span&gt;&lt;/div&gt;" style="ellipse;whiteSpace=wrap;html=1;aspect=fixed;" vertex="1" parent="1">
          <mxGeometry x="380" y="280" width="50" height="50" as="geometry" />
        </mxCell>
        <mxCell id="Fpf1traXN4QsZ3xAGvh6-34" style="edgeStyle=none;curved=1;rounded=0;orthogonalLoop=1;jettySize=auto;html=1;exitX=0.5;exitY=0;exitDx=0;exitDy=0;fontSize=12;startSize=8;endSize=8;" edge="1" parent="1" source="Fpf1traXN4QsZ3xAGvh6-25">
          <mxGeometry relative="1" as="geometry">
            <mxPoint x="400" y="230" as="targetPoint" />
          </mxGeometry>
        </mxCell>
        <mxCell id="Fpf1traXN4QsZ3xAGvh6-25" value="Edit&amp;nbsp;&lt;div&gt;Task&lt;span style=&quot;color: rgba(0, 0, 0, 0); font-family: monospace; font-size: 0px; text-align: start; text-wrap-mode: nowrap; background-color: transparent;&quot;&gt;%3CmxGraphModel%3E%3Croot%3E%3CmxCell%20id%3D%220%22%2F%3E%3CmxCell%20id%3D%221%22%20parent%3D%220%22%2F%3E%3CmxCell%20id%3D%222%22%20value%3D%22Create%2FDelete%2FEdit%20Task%22%20style%3D%22ellipse%3BwhiteSpace%3Dwrap%3Bhtml%3D1%3Baspect%3Dfixed%3B%22%20vertex%3D%221%22%20parent%3D%221%22%3E%3CmxGeometry%20x%3D%22370%22%20y%3D%22230%22%20width%3D%2250%22%20height%3D%2250%22%20as%3D%22geometry%22%2F%3E%3C%2FmxCell%3E%3C%2Froot%3E%3C%2FmxGraphModel%3E&lt;/span&gt;&lt;/div&gt;" style="ellipse;whiteSpace=wrap;html=1;aspect=fixed;" vertex="1" parent="1">
          <mxGeometry x="330" y="280" width="50" height="50" as="geometry" />
        </mxCell>
        <mxCell id="Fpf1traXN4QsZ3xAGvh6-36" style="edgeStyle=none;curved=1;rounded=0;orthogonalLoop=1;jettySize=auto;html=1;exitX=0.5;exitY=0;exitDx=0;exitDy=0;fontSize=12;startSize=8;endSize=8;" edge="1" parent="1" source="Fpf1traXN4QsZ3xAGvh6-27">
          <mxGeometry relative="1" as="geometry">
            <mxPoint x="410" y="229.9999999999999" as="targetPoint" />
          </mxGeometry>
        </mxCell>
        <mxCell id="Fpf1traXN4QsZ3xAGvh6-27" value="Delete&amp;nbsp;&lt;div&gt;Task&lt;span style=&quot;color: rgba(0, 0, 0, 0); font-family: monospace; font-size: 0px; text-align: start; text-wrap-mode: nowrap; background-color: transparent;&quot;&gt;%3CmxGraphModel%3E%3Croot%3E%3CmxCell%20id%3D%220%22%2F%3E%3CmxCell%20id%3D%221%22%20parent%3D%220%22%2F%3E%3CmxCell%20id%3D%222%22%20value%3D%22Create%2FDelete%2FEdit%20Task%22%20style%3D%22ellipse%3BwhiteSpace%3Dwrap%3Bhtml%3D1%3Baspect%3Dfixed%3B%22%20vertex%3D%221%22%20parent%3D%221%22%3E%3CmxGeometry%20x%3D%22370%22%20y%3D%22230%22%20width%3D%2250%22%20height%3D%2250%22%20as%3D%22geometry%22%2F%3E%3C%2FmxCell%3E%3C%2Froot%3E%3C%2FmxGraphModel%3E&lt;/span&gt;&lt;/div&gt;" style="ellipse;whiteSpace=wrap;html=1;aspect=fixed;" vertex="1" parent="1">
          <mxGeometry x="430" y="280" width="50" height="50" as="geometry" />
        </mxCell>
        <mxCell id="Fpf1traXN4QsZ3xAGvh6-33" value="&lt;font style=&quot;font-size: 11px;&quot;&gt;Validation&lt;/font&gt;" style="ellipse;whiteSpace=wrap;html=1;aspect=fixed;" vertex="1" parent="1">
          <mxGeometry x="380" y="180" width="50" height="50" as="geometry" />
        </mxCell>
        <mxCell id="Fpf1traXN4QsZ3xAGvh6-43" value="" style="curved=1;endArrow=classic;html=1;rounded=0;fontSize=12;startSize=8;endSize=8;exitX=1;exitY=0.5;exitDx=0;exitDy=0;entryX=0.923;entryY=0.251;entryDx=0;entryDy=0;entryPerimeter=0;" edge="1" parent="1" source="Fpf1traXN4QsZ3xAGvh6-33" target="39K2vKFIC0R0XHpehMD2-1">
          <mxGeometry width="50" height="50" relative="1" as="geometry">
            <mxPoint x="530" y="260" as="sourcePoint" />
            <mxPoint x="580" y="210" as="targetPoint" />
            <Array as="points">
              <mxPoint x="510" y="190" />
              <mxPoint x="550" y="330" />
            </Array>
          </mxGeometry>
        </mxCell>
        <mxCell id="Fpf1traXN4QsZ3xAGvh6-44" value="&lt;font style=&quot;font-size: 8px;&quot;&gt;Wait for next event&lt;/font&gt;" style="text;html=1;align=center;verticalAlign=middle;whiteSpace=wrap;rounded=0;" vertex="1" parent="1">
          <mxGeometry x="530" y="270" width="60" height="30" as="geometry" />
        </mxCell>
        <mxCell id="Fpf1traXN4QsZ3xAGvh6-45" value="&lt;font style=&quot;font-size: 8px;&quot;&gt;Make sure input is correct&lt;/font&gt;" style="text;html=1;align=center;verticalAlign=middle;whiteSpace=wrap;rounded=0;" vertex="1" parent="1">
          <mxGeometry x="320" y="220" width="60" height="30" as="geometry" />
        </mxCell>
        <mxCell id="Fpf1traXN4QsZ3xAGvh6-46" value="Exit" style="ellipse;whiteSpace=wrap;html=1;aspect=fixed;" vertex="1" parent="1">
          <mxGeometry x="590" y="375" width="50" height="50" as="geometry" />
        </mxCell>
        <mxCell id="Fpf1traXN4QsZ3xAGvh6-47" value="" style="endArrow=classic;html=1;rounded=0;fontSize=12;startSize=8;endSize=8;curved=1;exitX=1;exitY=0.5;exitDx=0;exitDy=0;entryX=0;entryY=0.5;entryDx=0;entryDy=0;" edge="1" parent="1" source="39K2vKFIC0R0XHpehMD2-1" target="Fpf1traXN4QsZ3xAGvh6-46">
          <mxGeometry width="50" height="50" relative="1" as="geometry">
            <mxPoint x="480" y="425" as="sourcePoint" />
            <mxPoint x="530" y="375" as="targetPoint" />
          </mxGeometry>
        </mxCell>
        <mxCell id="Fpf1traXN4QsZ3xAGvh6-48" value="&lt;font style=&quot;font-size: 8px;&quot;&gt;Exit Program&lt;/font&gt;" style="text;html=1;align=center;verticalAlign=middle;whiteSpace=wrap;rounded=0;" vertex="1" parent="1">
          <mxGeometry x="495" y="370" width="60" height="30" as="geometry" />
        </mxCell>
      </root>
    </mxGraphModel>
  </diagram>
</mxfile>
